<?xml version="1.0" encoding="UTF-8"?>
<svg xmlns="http://www.w3.org/2000/svg" xmlns:xlink="http://www.w3.org/1999/xlink" viewBox="0 0 75 50" version="1.1">
<g id="icon">
<path d="M 74.542969 36.429688 L 51.105469 12.96875 C 50.496094 12.359375 49.503906 12.359375 48.894531 12.96875 C 48.285156 13.582031 48.285156 14.570312 48.894531 15.183594 L 69.664062 35.972656 L 1.5625 35.972656 C 0.699219 35.972656 0 36.671875 0 37.535156 C 0 38.402344 0.699219 39.101562 1.5625 39.101562 L 69.664062 39.101562 L 48.894531 59.890625 C 48.285156 60.503906 48.285156 61.492188 48.894531 62.101562 C 49.1875 62.398438 49.585938 62.5625 50 62.5625 C 50.398438 62.5625 50.800781 62.410156 51.105469 62.101562 L 74.542969 38.640625 C 75.152344 38.03125 75.152344 37.042969 74.542969 36.429688 Z M 74.542969 36.429688 "/>
</g>
</svg>
